# xmcd
#
# Track frame offsets:
#	150
#	17658
#	31987
#	47029
#	62545
#	77346
#	91329
#	106170
#	118837
#	133963
#	148403
#	163944
#	176479
#	189349
#	201802
#	216710
#	235075
#	247682
#	260756
#	277776
#	292033
#	308985
#	324870
#	344330
#
# Disc length: 4794 seconds
#
# Revision: 1
# Processed by: cddbd v1.5.2PL0 Copyright (c) Steve Scherf et al.
# Submitted via: EasyCDDAExtractor 11.9.9.666
#
DISCID=6012b818
DTITLE=Jorge and Mateus - O Mundo É Tão Pequeno
DYEAR=1900
DGENRE=Sertanejo
TTITLE0=Vou Fazer Pirraça
TTITLE1=Fale Um Pouco Comigo
TTITLE2=Um Dia Te Levo Comigo
TTITLE3=Mania De Te Amar
TTITLE4=Só Falta Você
TTITLE5=Mistérios
TTITLE6=Onde Haja Sol
TTITLE7=O que Os Olhos Não Vêem
TTITLE8=Pra Nunca Dizer Adeus
TTITLE9=Espelho
TTITLE10=Voa, Beija-flor
TTITLE11=Só Eu Sei
TTITLE12=Não Faz Isso, Não
TTITLE13=Fogo Do Amor
TTITLE14=Ana Carolina
TTITLE15=Bandeira Branca Empreitada Perigosa Tchau, Amor Vou Tomar Um Pingão
TTITLE16=Se Eu Pedir, Cê Volta
TTITLE17=O Mundo É Tão Pequeno
TTITLE18=Saudade
TTITLE19=Eu Respiro Você
TTITLE20=Amor Covarde
TTITLE21=Tudo Ou Nada
TTITLE22=Não Sai Da Minha Vida (part Alexandre Peixe)
TTITLE23=Violeiro Feliz De Goiás
EXTD=
EXTT0=
EXTT1=
EXTT2=
EXTT3=
EXTT4=
EXTT5=
EXTT6=
EXTT7=
EXTT8=
EXTT9=
EXTT10=
EXTT11=
EXTT12=
EXTT13=
EXTT14=
EXTT15=
EXTT16=
EXTT17=
EXTT18=
EXTT19=
EXTT20=
EXTT21=
EXTT22=
EXTT23=
PLAYORDER=
